<svg width="292" height="255" viewBox="0 0 292 255" fill="none" xmlns="http://www.w3.org/2000/svg">
<path d="M256.411 82.7037C262.252 76.4334 272.381 71.8823 278.879 78.8483C280.823 80.9326 281.524 83.6589 281.932 86.6715C284.876 85.107 288.283 85.724 290.2 88.5299C291.426 90.3233 291.872 92.5609 291.523 94.8346L286.535 127.341C282.585 153.075 277.938 175.619 267.814 199.495C264.178 208.07 260.185 216.189 255.265 223.987C249.639 232.901 242.718 240.496 234.121 246.112C228.539 249.758 222.675 252.387 216.211 253.616C204.748 255.795 190.399 251.722 181.902 243.34C178.761 240.242 176.236 236.692 174.975 232.316C171.871 221.539 175.905 211.117 182.534 202.923C184.298 200.744 188.998 196.373 191.778 198.171C196.47 201.208 186.151 212.293 191.575 225.199C192.927 228.416 195.467 230.496 198.398 231.963C205.114 235.326 212.562 234.869 219.209 231.379C229.624 225.909 237.807 215.103 243.39 204.469C253.036 186.094 261.835 157.174 266.549 136.248C262.81 140.754 259.633 145.015 255.703 148.942L255.702 148.941C245.364 159.272 228.768 169.969 216.006 157.471C207.958 149.589 204.571 140.081 203.187 128.663L202.049 119.256C195.92 129.781 185.149 150.226 183.784 161.756C183.234 166.404 179.31 169.534 174.976 168.449C171.007 167.455 169.137 163.475 170.19 159.398C174.545 142.556 177.712 125.655 180.136 108.369L182.847 89.025C183.057 87.5236 183.79 85.7887 185.16 85.2887C186.519 84.7926 188 86.2872 188.142 87.7526C189.098 97.5603 187.699 111.532 187.141 121.302L196.928 103.091C198.647 99.8919 201.891 97.9737 205.316 98.652C212.181 100.014 213.709 107.382 214.627 113.875C215.46 119.763 216.327 125.492 218.219 131.067C220.022 136.382 224.878 148.01 231.813 144.174C227.081 135.045 230.197 123.647 234.417 115.078C240.266 103.2 247.543 92.2244 256.411 82.7037ZM85.8602 5.39513C87.5245 1.23165 91.2101 -0.561114 95.1151 0.152942C99.2881 0.915384 102.053 4.27668 101.925 8.92931C101.776 14.2997 100.791 19.4201 99.702 24.7682C97.3921 36.1182 94.5578 47.0158 91.6444 58.2223L83.1854 90.7574L75.0741 119.275L69.12 139.551C65.733 151.083 61.6059 169.564 61.9872 181.7L66.4989 178.812C67.5327 178.15 68.792 177.505 69.9813 177.316C75.8899 176.374 72.9241 188.962 63.1981 196.169L63.1971 196.171C59.1669 199.156 54.5547 199.175 50.5887 196.525C47.7283 194.614 45.7377 191.968 44.829 188.447C42.0911 177.827 43.7652 168.542 44.7967 157.392C40.1899 165.559 35.0527 172.804 28.5712 179.082C25.7163 181.399 22.7876 183.115 19.2147 183.564C13.2149 184.318 7.50229 181.545 4.47546 175.961C1.98313 171.361 0.815088 166.401 0.313347 161.074C-2.47945 131.476 13.6884 101.811 37.1532 86.483C43.8266 82.5818 50.4965 79.227 58.2704 81.5748L72.7714 41.3961C77.1431 29.2825 81.1341 17.2216 85.8602 5.39513ZM165.224 81.0367C166.87 77.8693 169.431 72.5431 172.809 73.8922C176.234 75.26 174.96 80.139 174.142 83.0377L169.968 97.8541L159.455 134.465C157.346 141.81 156.043 149.098 155.164 156.662L155.168 156.663C154.598 161.559 154.672 167.676 150.659 170.667C148.554 172.235 146.055 172.357 143.496 171.395C141.505 170.648 139.775 168.702 138.832 166.109C135.846 157.894 137.875 145.593 140.402 137.205C146.057 118.438 156.232 98.3502 165.224 81.0367ZM113.492 82.7115C118.363 78.8858 124.765 80.3515 128.155 85.5846C129.408 87.5167 130.617 89.2547 131.594 91.4381C138.216 106.239 134.913 121.332 128.575 135.526C125.718 141.925 122.587 147.89 118.265 153.265L118.266 153.264C112.239 160.762 103.478 167.941 93.5731 165.51C84.217 163.213 79.4674 153.327 80.9022 143.573C81.6507 138.485 83.0666 133.851 85.1893 129.148C91.43 115.32 100.217 103.113 110.929 92.7281C109.539 88.8998 110.514 85.0509 113.492 82.7115ZM54.3456 90.9996C49.2639 93.6917 45.119 97.2839 41.077 101.273C35.8152 106.465 31.5568 112.263 27.578 118.624C20.7279 129.573 16.8508 142.203 17.0438 155.384C17.0859 158.242 17.4379 160.835 18.1044 163.664C26.9074 152.973 33.4484 139.327 38.9032 126.714L54.3456 90.9996ZM115.144 101.274C109.988 108.849 105.531 116.625 101.691 125.002C98.6902 131.549 95.2966 140.788 96.3983 148.087C100.144 148.207 105.665 139.911 107.347 136.897C110.39 131.443 112.689 125.755 114.752 119.775C116.597 114.426 117.459 106.68 115.144 101.274ZM269.27 92.069C267.037 93.9651 265.285 95.8517 263.556 98.1451C257.634 105.998 245.728 123.672 244.726 134.083H244.728C251.089 128.582 256.266 122.124 260.724 115.019C264.264 109.376 269.206 98.9706 269.27 92.069ZM179.601 30.1442C182.857 26.9706 187.191 27.1154 190.771 29.3668C194.465 31.69 196.338 35.7052 195.29 40.3541C193.684 47.4797 186.906 54.7171 180.216 53.2145C176.292 52.3332 173.947 49.0394 173.842 44.7779C173.706 39.3073 175.804 33.8462 179.601 30.1442Z" fill="#292929"/>
</svg>
